<svg width="142" height="138" viewBox="0 0 142 138" fill="none" xmlns="http://www.w3.org/2000/svg">
<path d="M54 49H92" stroke="#879196" stroke-width="2" stroke-linejoin="round"/>
<path d="M48.9746 45.0033L42.0046 45.0288L42.0302 51.9988L49.0001 51.9732L48.9746 45.0033Z" stroke="#879196" stroke-width="2" stroke-linejoin="round"/>
<path d="M54 65H92" stroke="#879196" stroke-width="2" stroke-linejoin="round"/>
<path d="M48.9734 61.0033L42.0034 61.0288L42.029 67.9988L48.9989 67.9732L48.9734 61.0033Z" stroke="#879196" stroke-width="2" stroke-linejoin="round"/>
<path d="M54 81H92" stroke="#879196" stroke-width="2" stroke-linejoin="round"/>
<path d="M48.9719 77.0033L42.002 77.0288L42.0275 83.9988L48.9975 83.9732L48.9719 77.0033Z" stroke="#879196" stroke-width="2" stroke-linejoin="round"/>
<path d="M25 99V35" stroke="#879196" stroke-width="2" stroke-linejoin="round"/>
<path d="M6 35H114" stroke="#879196" stroke-width="2" stroke-linejoin="round"/>
<path d="M111.75 98.9999C112.042 99.0038 112.331 98.9503 112.602 98.8424C112.873 98.7345 113.12 98.5743 113.329 98.3709C113.538 98.1676 113.704 97.925 113.82 97.6572C113.935 97.3893 113.996 97.1014 114 96.8099V23.1899C113.996 22.8983 113.935 22.6104 113.82 22.3426C113.704 22.0747 113.538 21.8322 113.329 21.6288C113.12 21.4255 112.873 21.2652 112.602 21.1573C112.331 21.0494 112.042 20.9959 111.75 20.9999H8.32C8.02894 20.9946 7.7397 21.0468 7.46889 21.1537C7.19809 21.2605 6.95105 21.4197 6.74198 21.6223C6.53291 21.8249 6.36592 22.0668 6.2506 22.3341C6.13528 22.6013 6.0739 22.8888 6.07 23.1799L6 96.8099C6.01051 97.3961 6.25146 97.9546 6.67069 98.3644C7.08992 98.7743 7.6537 99.0026 8.24 98.9999H111.75Z" stroke="#879196" stroke-width="2" stroke-linejoin="round"/>
<path d="M11 28H16" stroke="#869095" stroke-width="2" stroke-linejoin="round"/>
<path d="M19 28H24" stroke="#869095" stroke-width="2" stroke-linejoin="round"/>
<path d="M27 28H32" stroke="#869095" stroke-width="2" stroke-linejoin="round"/>
<path d="M131.71 47.8599H88.71V79.8599H131.71V47.8599Z" fill="white" stroke="white" stroke-width="10" stroke-linejoin="round"/>
<path d="M118.72 79.2199H89.7201C89.4858 79.2173 89.262 79.1223 89.0972 78.9557C88.9325 78.7891 88.8401 78.5642 88.8401 78.3299V47.5299C88.8427 47.2973 88.9362 47.075 89.1007 46.9105C89.2652 46.746 89.4875 46.6525 89.7201 46.6499H132.12C132.353 46.6525 132.575 46.746 132.739 46.9105C132.904 47.075 132.997 47.2973 133 47.5299V78.3299C133 78.5642 132.908 78.7891 132.743 78.9557C132.578 79.1223 132.354 79.2173 132.12 79.2199H123.76" fill="white"/>
<path d="M118.72 79.2199H89.7201C89.4858 79.2173 89.262 79.1223 89.0972 78.9557C88.9325 78.7891 88.8401 78.5642 88.8401 78.3299V47.5299C88.8427 47.2973 88.9362 47.075 89.1007 46.9105C89.2652 46.746 89.4875 46.6525 89.7201 46.6499H132.12C132.353 46.6525 132.575 46.746 132.739 46.9105C132.904 47.075 132.997 47.2973 133 47.5299V78.3299C133 78.5642 132.908 78.7891 132.743 78.9557C132.578 79.1223 132.354 79.2173 132.12 79.2199H123.76" stroke="#879196" stroke-width="2" stroke-linejoin="round"/>
<path d="M123.67 79.2202H117.05" stroke="#879196" stroke-width="2" stroke-linejoin="round"/>
<path d="M97.6299 62.6602H110.32" stroke="#879196" stroke-width="2" stroke-linejoin="round"/>
<path d="M113.08 65.4199C114.604 65.4199 115.84 64.1842 115.84 62.6599C115.84 61.1356 114.604 59.8999 113.08 59.8999C111.556 59.8999 110.32 61.1356 110.32 62.6599C110.32 64.1842 111.556 65.4199 113.08 65.4199Z" fill="white" stroke="#879196" stroke-width="2" stroke-linejoin="round"/>
<path d="M115.84 62.6602H126.88" stroke="#879196" stroke-width="2" stroke-linejoin="round"/>
<path d="M97.6299 52.7202H104.8" stroke="#879196" stroke-width="2" stroke-linejoin="round"/>
<path d="M107.56 55.48C109.084 55.48 110.32 54.2443 110.32 52.72C110.32 51.1957 109.084 49.96 107.56 49.96C106.036 49.96 104.8 51.1957 104.8 52.72C104.8 54.2443 106.036 55.48 107.56 55.48Z" fill="white" stroke="#879196" stroke-width="2" stroke-linejoin="round"/>
<path d="M109.77 52.7202H126.88" stroke="#879196" stroke-width="2" stroke-linejoin="round"/>
<path d="M97.6299 72.04H101.49" stroke="#879196" stroke-width="2" stroke-linejoin="round"/>
<path d="M104.25 75.3501C105.774 75.3501 107.01 74.1144 107.01 72.5901C107.01 71.0658 105.774 69.8301 104.25 69.8301C102.726 69.8301 101.49 71.0658 101.49 72.5901C101.49 74.1144 102.726 75.3501 104.25 75.3501Z" fill="white" stroke="#879196" stroke-width="2" stroke-linejoin="round"/>
<path d="M107.01 72.04H126.88" stroke="#879196" stroke-width="2" stroke-linejoin="round"/>
<path d="M93.76 52.7202H95.42" stroke="#879196" stroke-width="2" stroke-linejoin="round"/>
<path d="M93.76 62.6602H95.42" stroke="#879196" stroke-width="2" stroke-linejoin="round"/>
<path d="M93.76 72.04H95.42" stroke="#879196" stroke-width="2" stroke-linejoin="round"/>
<path d="M98 86H14V134H98V86Z" fill="white"/>
<path d="M94.1099 90.8198H21.1299V129.46H94.1099V90.8198Z" stroke="#879196" stroke-width="2" stroke-linejoin="round"/>
<path d="M67.6299 125.17H72.6399" stroke="#879196" stroke-width="2" stroke-linejoin="round"/>
<path d="M39.0199 95.1201H31.8799C32.7279 96.0938 33.1749 97.3529 33.1308 98.6433C33.0868 99.9338 32.5549 101.159 31.6425 102.073C30.7302 102.987 29.5053 103.52 28.2149 103.566C26.9246 103.612 25.6648 103.167 24.6899 102.32V118.57C25.6172 117.774 26.7995 117.337 28.0218 117.339C29.2441 117.341 30.4249 117.782 31.3493 118.582C32.2738 119.381 32.8802 120.486 33.0584 121.696C33.2365 122.905 32.9745 124.138 32.3199 125.17H64.0599" stroke="#879196" stroke-width="2" stroke-linejoin="round"/>
<path d="M48.3099 95.1201H41.8799" stroke="#879196" stroke-width="2" stroke-linejoin="round"/>
<path d="M75.4999 125.17H82.8799C82.2254 124.138 81.9633 122.905 82.1415 121.696C82.3196 120.486 82.9261 119.381 83.8505 118.582C84.7749 117.782 85.9558 117.341 87.1781 117.339C88.4003 117.337 89.5827 117.774 90.5099 118.57V102.32C89.531 103.144 88.2787 103.57 87.0005 103.515C85.7223 103.461 84.5112 102.928 83.6065 102.024C82.7019 101.119 82.1695 99.9078 82.1146 98.6295C82.0596 97.3513 82.4862 96.099 83.3099 95.1201H51.1799" stroke="#879196" stroke-width="2" stroke-linejoin="round"/>
<path d="M66.1999 117.26C65.3098 118.458 64.1539 119.434 62.8231 120.111C61.4923 120.788 60.0228 121.147 58.5299 121.16C52.9999 121.16 48.5299 116.27 48.5299 110.24C48.5077 107.452 49.5073 104.752 51.3399 102.65" stroke="#879196" stroke-width="2" stroke-linejoin="round"/>
<path d="M53.97 100.51C55.3606 99.7224 56.9318 99.309 58.53 99.3101C64.06 99.3101 68.53 104.2 68.53 110.24C68.5322 111.356 68.3773 112.467 68.07 113.54" stroke="#879196" stroke-width="2" stroke-linejoin="round"/>
</svg>
